 http://www.shotpix.com/images/46044260974569026765.jpg

Info:

Format : AVI
Format/Info : Audio Video Interleave
File size : 832 MiB
Duration : 2h 3mn
Overall bit rate : 942 Kbps



Video
ID : 0
Format : MPEG-4 Visual
Format profile : Advanced Simple@L5
Format settings, BVOP : 2
Format settings, QPel : No
Format settings, GMC : No warppoints
Format settings, Matrix : Default (H.263)
Codec ID : XVID
Codec ID/Hint : XviD
Duration : 2h 3mn
Bit rate : 743 Kbps
Width : 688 pixels
Height : 288 pixels
Display aspect ratio : 2.40:1
Frame rate : 23.976 fps
Color space : YUV
Chroma subsampling : 4:2:0
Bit depth : 8 bits
Scan type : Progressive
Compression mode : Lossy
Bits/(Pixel*Frame) : 0.156
Stream size : 656 MiB (79%)
Writing library : XviD 1.2.1 (UTC 2008-12-04)



Audio
ID : 1
Format : AC-3
Format/Info : Audio Coding 3
Mode extension : CM (complete main)
Codec ID : 2000
Duration : 2h 3mn
Bit rate mode : Constant
Bit rate : 192 Kbps
Channel(s) : 2 channels
Channel positions : Front: L R
Sampling rate : 48.0 KHz
Bit depth : 16 bits
Compression mode : Lossy
Stream size : 170 MiB (20%)
Alignment : Aligned on interleaves
Interleave, duration : 64 ms (1.53 video frames)
Interleave, preload duration : 192 ms




Screens: 
http://www.shotpix.com/images/28855411567404983379.png 
http://www.shotpix.com/images/75414632297682800538.png 
http://www.shotpix.com/images/25320348905515801133.png 
http://www.shotpix.com/images/81159777631725074467.png 
http://www.shotpix.com/images/05596119602090792898.png 
http://www.shotpix.com/images/67252545882747680188.png 
http://www.shotpix.com/images/48049220267299958664.png